<svg width="44" height="37" viewBox="0 0 44 37" fill="none" xmlns="http://www.w3.org/2000/svg">
<path d="M27.2414 15.0034H35.9828" stroke="#0FA958" stroke-width="2" stroke-linecap="round" stroke-linejoin="round"/>
<path d="M27.2414 21.9966H35.9828" stroke="#0FA958" stroke-width="2" stroke-linecap="round" stroke-linejoin="round"/>
<path d="M14.1521 21.9966C17.0488 21.9966 19.397 19.6484 19.397 16.7517C19.397 13.8551 17.0488 11.5069 14.1521 11.5069C11.2555 11.5069 8.9073 13.8551 8.9073 16.7517C8.9073 19.6484 11.2555 21.9966 14.1521 21.9966Z" stroke="#0FA958" stroke-width="2" stroke-linecap="round" stroke-linejoin="round"/>
<path d="M7.37755 27.2415C7.7627 25.7372 8.63754 24.4039 9.86415 23.4518C11.0908 22.4997 12.5994 21.9829 14.1521 21.9829C15.7049 21.9829 17.2135 22.4997 18.4401 23.4518C19.6667 24.4039 20.5416 25.7372 20.9267 27.2415" stroke="#0FA958" stroke-width="2" stroke-linecap="round" stroke-linejoin="round"/>
<path d="M41.2277 1.01718H2.76546C1.79991 1.01718 1.01718 1.79991 1.01718 2.76546V34.2345C1.01718 35.2001 1.79991 35.9828 2.76546 35.9828H41.2277C42.1932 35.9828 42.9759 35.2001 42.9759 34.2345V2.76546C42.9759 1.79991 42.1932 1.01718 41.2277 1.01718Z" stroke="#0FA958" stroke-width="2" stroke-linecap="round" stroke-linejoin="round"/>
</svg>
