<svg width="44" height="37" viewBox="0 0 44 37" fill="none" xmlns="http://www.w3.org/2000/svg">
<path d="M27.2414 15.0034H35.9828" stroke="#0FA958" stroke-width="2" stroke-linecap="round" stroke-linejoin="round"/>
<path d="M27.2414 21.9966H35.9828" stroke="#0FA958" stroke-width="2" stroke-linecap="round" stroke-linejoin="round"/>
<path d="M14.1519 21.9966C17.0485 21.9966 19.3967 19.6484 19.3967 16.7517C19.3967 13.8551 17.0485 11.5069 14.1519 11.5069C11.2552 11.5069 8.90705 13.8551 8.90705 16.7517C8.90705 19.6484 11.2552 21.9966 14.1519 21.9966Z" stroke="#0FA958" stroke-width="2" stroke-linecap="round" stroke-linejoin="round"/>
<path d="M7.3773 27.2415C7.76245 25.7372 8.63729 24.4039 9.8639 23.4518C11.0905 22.4997 12.5991 21.9829 14.1519 21.9829C15.7047 21.9829 17.2133 22.4997 18.4399 23.4518C19.6665 24.4039 20.5413 25.7372 20.9265 27.2415" stroke="#0FA958" stroke-width="2" stroke-linecap="round" stroke-linejoin="round"/>
<path d="M41.2277 1.01718H2.76546C1.79991 1.01718 1.01718 1.79991 1.01718 2.76546V34.2345C1.01718 35.2001 1.79991 35.9828 2.76546 35.9828H41.2277C42.1932 35.9828 42.9759 35.2001 42.9759 34.2345V2.76546C42.9759 1.79991 42.1932 1.01718 41.2277 1.01718Z" stroke="#0FA958" stroke-width="2" stroke-linecap="round" stroke-linejoin="round"/>
</svg>
