<svg width="38" height="39" viewBox="0 0 38 39" fill="none" xmlns="http://www.w3.org/2000/svg">
<path d="M32.0751 8.40436H5.44552C2.99434 8.40436 1.00726 10.3914 1.00726 12.8426V33.5545C1.00726 36.0057 2.99434 37.9927 5.44552 37.9927H32.0751C34.5262 37.9927 36.5133 36.0057 36.5133 33.5545V12.8426C36.5133 10.3914 34.5262 8.40436 32.0751 8.40436Z" stroke="#0FA958" stroke-width="2" stroke-linecap="round" stroke-linejoin="round"/>
<path d="M25.4177 24.678H12.1029C10.0603 24.678 8.40436 26.3339 8.40436 28.3765C8.40436 30.4192 10.0603 32.0751 12.1029 32.0751H25.4177C27.4603 32.0751 29.1162 30.4192 29.1162 28.3765C29.1162 26.3339 27.4603 24.678 25.4177 24.678Z" stroke="#0FA958" stroke-width="2" stroke-linecap="round" stroke-linejoin="round"/>
<path d="M22.4588 24.678V32.0751" stroke="#0FA958" stroke-width="2" stroke-linecap="round" stroke-linejoin="round"/>
<path d="M15.0617 24.678V32.0751" stroke="#0FA958" stroke-width="2" stroke-linecap="round" stroke-linejoin="round"/>
<path d="M18.7603 8.40436V1.00726" stroke="#0FA958" stroke-width="2" stroke-linecap="round" stroke-linejoin="round"/>
<path d="M10.6235 20.2397C11.8491 20.2397 12.8426 19.2462 12.8426 18.0206C12.8426 16.795 11.8491 15.8015 10.6235 15.8015C9.3979 15.8015 8.40436 16.795 8.40436 18.0206C8.40436 19.2462 9.3979 20.2397 10.6235 20.2397Z" fill="#0FA958"/>
<path d="M26.8971 20.2397C28.1227 20.2397 29.1162 19.2462 29.1162 18.0206C29.1162 16.795 28.1227 15.8015 26.8971 15.8015C25.6715 15.8015 24.678 16.795 24.678 18.0206C24.678 19.2462 25.6715 20.2397 26.8971 20.2397Z" fill="#0FA958"/>
</svg>
