<svg width="15" height="15" viewBox="0 0 15 15" fill="none" xmlns="http://www.w3.org/2000/svg">
<path d="M15 14.2154L10.81 10.0254C11.8168 8.81667 12.3189 7.26624 12.2118 5.69669C12.1047 4.12715 11.3965 2.65933 10.2347 1.59859C9.07295 0.537842 7.54693 -0.0341577 5.97413 0.00157911C4.40134 0.0373159 2.90288 0.678038 1.79046 1.79046C0.678038 2.90288 0.0373159 4.40134 0.00157911 5.97413C-0.0341577 7.54693 0.537842 9.07295 1.59859 10.2347C2.65933 11.3965 4.12715 12.1047 5.69669 12.2118C7.26624 12.3189 8.81667 11.8168 10.0254 10.81L14.2154 15L15 14.2154ZM1.12948 6.12285C1.12948 5.13525 1.42233 4.16984 1.97101 3.34868C2.51969 2.52753 3.29955 1.88751 4.21197 1.50958C5.12439 1.13164 6.12839 1.03275 7.09701 1.22542C8.06563 1.41809 8.95536 1.89367 9.6537 2.592C10.352 3.29034 10.8276 4.18007 11.0203 5.14869C11.2129 6.11731 11.1141 7.12131 10.7361 8.03373C10.3582 8.94615 9.71817 9.72601 8.89702 10.2747C8.07586 10.8234 7.11044 11.1162 6.12285 11.1162C4.79898 11.1148 3.52975 10.5882 2.59362 9.65207C1.6575 8.71595 1.13095 7.44672 1.12948 6.12285V6.12285Z" fill="black"/>
</svg>
